<svg width="64" height="64" viewBox="0 0 64 64" fill="none" xmlns="http://www.w3.org/2000/svg">
<g clip-path="url(#clip0_50_6408)">
<path fill-rule="evenodd" clip-rule="evenodd" d="M32 0C38.33 1.54558e-06 44.5177 1.87733 49.7806 5.39453C55.0434 8.91172 59.1449 13.9108 61.5663 19.7593C63.9876 25.6078 64.62 32.0431 63.3835 38.2511C62.1469 44.4591 59.097 50.1609 54.6195 54.6353C50.142 59.1097 44.438 62.1556 38.2292 63.3878C32.0203 64.62 25.5855 63.9832 19.7386 61.5577C13.8918 59.1323 8.89562 55.0273 5.3821 49.762C1.86859 44.4967 -0.00441563 38.3076 7.81701e-06 31.9776C0.00593588 23.4946 3.37998 15.361 9.3805 9.36467C15.381 3.36835 23.517 -2.0713e-06 32 0Z" fill="url(#paint0_linear_50_6408)"/>
<path style="mix-blend-mode:screen" fill-rule="evenodd" clip-rule="evenodd" d="M32 0.983948C40.2301 0.989871 48.1214 4.26188 53.9409 10.0814C59.7605 15.901 63.0325 23.7923 63.0384 32.0224C63.0384 40.2543 59.7683 48.149 53.9474 53.9699C48.1266 59.7907 40.2319 63.0608 32 63.0608C23.7681 63.0608 15.8733 59.7907 10.0525 53.9699C4.23167 48.149 0.961548 40.2543 0.961548 32.0224C0.961548 23.7905 4.23167 15.8957 10.0525 10.0749C15.8733 4.25406 23.7681 0.983948 32 0.983948Z" fill="url(#paint1_linear_50_6408)"/>
<path style="mix-blend-mode:screen" opacity="0.5" fill-rule="evenodd" clip-rule="evenodd" d="M61.7638 25.2243C60.2278 18.4668 56.4414 12.4317 51.0254 8.10859C45.6093 3.78545 38.8851 1.43085 31.9553 1.43085C25.0254 1.43085 18.3012 3.78545 12.8852 8.10859C7.46912 12.4317 3.68269 18.4668 2.14674 25.2243C-1.16283 39.8491 65.0733 39.8491 61.7638 25.2243Z" fill="url(#paint2_linear_50_6408)"/>
<path style="mix-blend-mode:screen" fill-rule="evenodd" clip-rule="evenodd" d="M16.5925 11.1139C15.6479 11.8695 14.6201 12.5148 13.5289 13.037C11.6058 13.6184 10.8902 11.9189 11.8071 10.689C14.496 7.61822 17.9422 5.30527 21.8029 3.98041C30.0544 0.983904 39.2229 1.99019 39.4465 3.53317C39.4465 4.13694 37.2103 3.73443 32.7379 4.53946C26.9476 5.41184 21.4458 7.64167 16.682 11.0468L16.5925 11.1139ZM10.3312 17.1516C9.32489 18.717 8.09497 18.9853 7.42412 18.4486C6.75326 17.9119 6.66381 16.6597 7.82663 15.0049C8.98945 13.3501 10.0628 12.9476 10.8455 13.4619C11.6282 13.9762 11.6729 15.0496 10.3312 17.1516Z" fill="url(#paint3_radial_50_6408)"/>
<g clip-path="url(#clip1_50_6408)">
<path style="mix-blend-mode:multiply" opacity="0.75" fill-rule="evenodd" clip-rule="evenodd" d="M48.6546 25.0741C43.9314 25.3306 36.9369 25.9291 32.575 25.978C33.2977 25.1718 34.9882 23.8892 35.8787 22.9365C35.9831 22.8613 36.0693 22.7659 36.1315 22.6565C36.1936 22.5471 36.2302 22.4264 36.2387 22.3024C36.2473 22.1785 36.2276 22.0543 36.1811 21.9382C36.1345 21.8221 36.0622 21.7168 35.969 21.6294C34.4849 19.7239 33.0008 17.8061 31.2457 15.8273C30.3682 14.8379 29.4778 14.6669 28.5228 15.6929C27.2323 17.1343 16.9083 26.9918 13.0368 30.7785C12.8667 30.9386 12.7317 31.1289 12.6395 31.3385C12.5474 31.5481 12.5 31.773 12.5 32C12.5 32.227 12.5474 32.4518 12.6395 32.6615C12.7317 32.8711 12.8667 33.0614 13.0368 33.2215C16.9083 37.0082 27.2323 46.8657 28.5228 48.3071C29.4778 49.3331 30.3682 49.1621 31.2457 48.1727C33.0008 46.1939 34.4849 44.2761 35.969 42.3706C36.0622 42.2832 36.1345 42.1779 36.1811 42.0618C36.2276 41.9457 36.2473 41.8215 36.2387 41.6976C36.2302 41.5736 36.1936 41.4529 36.1315 41.3435C36.0693 41.2341 35.9831 41.1387 35.8787 41.0636C34.9882 40.1108 33.2977 38.8282 32.575 38.022C36.9369 38.022 43.9314 38.6694 48.6546 38.9259C49.9451 38.9992 50.5 35.5057 50.5 32.0122C50.5 28.5187 49.8935 25.0374 48.6546 25.0985V25.0741Z" fill="url(#paint4_linear_50_6408)"/>
<g style="mix-blend-mode:screen" opacity="0.5">
<path fill-rule="evenodd" clip-rule="evenodd" d="M26.1377 45.8453L12.8718 33.052L13.3806 32.3084L14.0325 31.7015L26.1377 43.3485L31.4536 47.9463C31.4536 47.9463 30.7671 48.8243 30.1177 48.9785C29.4683 49.1328 28.8626 48.6308 28.8626 48.6308L26.1377 45.8453Z" fill="#FFD2EB"/>
</g>
<path opacity="0.5" fill-rule="evenodd" clip-rule="evenodd" d="M13.4593 30.3395L22.8045 21.3208L28.6746 15.5338C28.6746 15.5338 29.1424 14.9988 29.8434 14.9988C30.5444 14.9988 31.2032 15.8184 31.2032 15.8184L29.2949 16.924L22.6761 23.1178L13.4593 32.2636L12.8878 33.0064C12.8878 33.0064 12.5001 32.6552 12.5001 32.062C12.5001 31.4688 12.8155 31.0172 12.8155 31.0172L13.4593 30.3395Z" fill="#260E18"/>
</g>
</g>
<defs>
<linearGradient id="paint0_linear_50_6408" x1="32" y1="63.9776" x2="32" y2="0" gradientUnits="userSpaceOnUse">
<stop stop-color="#B01C57"/>
<stop offset="0.38" stop-color="#F2507C"/>
<stop offset="1" stop-color="#FF99BD"/>
</linearGradient>
<linearGradient id="paint1_linear_50_6408" x1="32" y1="62.39" x2="32" y2="0.939226" gradientUnits="userSpaceOnUse">
<stop offset="0.02" stop-color="#63004B"/>
<stop offset="1" stop-color="#BF5495"/>
</linearGradient>
<linearGradient id="paint2_linear_50_6408" x1="32" y1="36.2041" x2="32" y2="1.40882" gradientUnits="userSpaceOnUse">
<stop offset="0.02" stop-color="#BD2F75"/>
<stop offset="0.98" stop-color="#FD6FC5"/>
</linearGradient>
<radialGradient id="paint3_radial_50_6408" cx="0" cy="0" r="1" gradientUnits="userSpaceOnUse" gradientTransform="translate(14.6918 -2.03496) scale(45.4843 45.4843)">
<stop stop-color="#FFE1ED"/>
<stop offset="0.01" stop-color="#FFD9F0"/>
<stop offset="0.98" stop-color="#080800"/>
</radialGradient>
<linearGradient id="paint4_linear_50_6408" x1="31.482" y1="49" x2="31.482" y2="15" gradientUnits="userSpaceOnUse">
<stop stop-color="#E02B82"/>
<stop offset="1" stop-color="#A63079"/>
</linearGradient>
<clipPath id="clip0_50_6408">
<rect width="64" height="64" fill="white"/>
</clipPath>
<clipPath id="clip1_50_6408">
<rect width="38" height="34" fill="white" transform="translate(12.5 15)"/>
</clipPath>
</defs>
</svg>
