<svg width="64" height="64" viewBox="0 0 64 64" fill="none" xmlns="http://www.w3.org/2000/svg">
<g clip-path="url(#clip0_50_6409)">
<path fill-rule="evenodd" clip-rule="evenodd" d="M32 0C38.33 1.54558e-06 44.5177 1.87733 49.7806 5.39453C55.0434 8.91172 59.1449 13.9108 61.5663 19.7593C63.9876 25.6078 64.62 32.0431 63.3835 38.2511C62.1469 44.4591 59.097 50.1609 54.6195 54.6353C50.142 59.1097 44.438 62.1556 38.2292 63.3878C32.0203 64.62 25.5855 63.9832 19.7386 61.5577C13.8918 59.1323 8.89562 55.0273 5.3821 49.762C1.86859 44.4967 -0.00441563 38.3076 7.81701e-06 31.9776C0.00593588 23.4946 3.37998 15.361 9.3805 9.36467C15.381 3.36835 23.517 -2.0713e-06 32 0Z" fill="url(#paint0_linear_50_6409)"/>
<path style="mix-blend-mode:screen" fill-rule="evenodd" clip-rule="evenodd" d="M32 0.983948C40.2301 0.989871 48.1214 4.26188 53.9409 10.0814C59.7605 15.901 63.0325 23.7923 63.0384 32.0224C63.0384 40.2543 59.7683 48.149 53.9474 53.9699C48.1266 59.7907 40.2319 63.0608 32 63.0608C23.7681 63.0608 15.8733 59.7907 10.0525 53.9699C4.23167 48.149 0.961548 40.2543 0.961548 32.0224C0.961548 23.7905 4.23167 15.8957 10.0525 10.0749C15.8733 4.25406 23.7681 0.983948 32 0.983948Z" fill="url(#paint1_linear_50_6409)"/>
<path style="mix-blend-mode:screen" opacity="0.5" fill-rule="evenodd" clip-rule="evenodd" d="M61.7638 25.2243C60.2278 18.4668 56.4414 12.4317 51.0254 8.10859C45.6093 3.78545 38.8851 1.43085 31.9553 1.43085C25.0254 1.43085 18.3012 3.78545 12.8852 8.10859C7.46912 12.4317 3.68269 18.4668 2.14674 25.2243C-1.16283 39.8491 65.0733 39.8491 61.7638 25.2243Z" fill="url(#paint2_linear_50_6409)"/>
<path style="mix-blend-mode:screen" fill-rule="evenodd" clip-rule="evenodd" d="M16.5925 11.1139C15.6479 11.8695 14.6201 12.5148 13.5289 13.037C11.6058 13.6184 10.8902 11.9189 11.8071 10.689C14.496 7.61822 17.9422 5.30527 21.8029 3.98041C30.0544 0.983904 39.2229 1.99019 39.4465 3.53317C39.4465 4.13694 37.2103 3.73443 32.7379 4.53946C26.9476 5.41184 21.4458 7.64167 16.682 11.0468L16.5925 11.1139ZM10.3312 17.1516C9.32489 18.717 8.09497 18.9853 7.42412 18.4486C6.75326 17.9119 6.66381 16.6597 7.82663 15.0049C8.98945 13.3501 10.0628 12.9476 10.8455 13.4619C11.6282 13.9762 11.6729 15.0496 10.3312 17.1516Z" fill="url(#paint3_radial_50_6409)"/>
<g clip-path="url(#clip1_50_6409)">
<path style="mix-blend-mode:multiply" opacity="0.75" fill-rule="evenodd" clip-rule="evenodd" d="M14.3454 25.0741C19.0686 25.3306 26.0631 25.9291 30.425 25.978C29.7023 25.1718 28.0118 23.8892 27.1213 22.9365C27.0169 22.8613 26.9307 22.7659 26.8685 22.6565C26.8064 22.5471 26.7698 22.4264 26.7613 22.3024C26.7527 22.1785 26.7724 22.0543 26.8189 21.9382C26.8655 21.8221 26.9378 21.7168 27.031 21.6294C28.5151 19.7239 29.9992 17.8061 31.7543 15.8273C32.6318 14.8379 33.5222 14.6669 34.4772 15.6929C35.7677 17.1343 46.0917 26.9918 49.9632 30.7785C50.1333 30.9386 50.2683 31.1289 50.3605 31.3385C50.4526 31.5481 50.5 31.773 50.5 32C50.5 32.227 50.4526 32.4518 50.3605 32.6615C50.2683 32.8711 50.1333 33.0614 49.9632 33.2215C46.0917 37.0082 35.7677 46.8657 34.4772 48.3071C33.5222 49.3331 32.6318 49.1621 31.7543 48.1727C29.9992 46.1939 28.5151 44.2761 27.031 42.3706C26.9378 42.2832 26.8655 42.1779 26.8189 42.0618C26.7724 41.9457 26.7527 41.8215 26.7613 41.6976C26.7698 41.5736 26.8064 41.4529 26.8685 41.3435C26.9307 41.2341 27.0169 41.1387 27.1213 41.0636C28.0118 40.1108 29.7023 38.8282 30.425 38.022C26.0631 38.022 19.0686 38.6694 14.3454 38.9259C13.0549 38.9992 12.5 35.5057 12.5 32.0122C12.5 28.5187 13.1065 25.0374 14.3454 25.0985V25.0741Z" fill="url(#paint4_linear_50_6409)"/>
<g style="mix-blend-mode:screen" opacity="0.5">
<path fill-rule="evenodd" clip-rule="evenodd" d="M36.8623 45.8453L50.1282 33.052L49.6194 32.3084L48.9675 31.7015L36.8623 43.3485L31.5464 47.9463C31.5464 47.9463 32.2329 48.8243 32.8823 48.9785C33.5317 49.1328 34.1374 48.6308 34.1374 48.6308L36.8623 45.8453Z" fill="#FFD2EB"/>
</g>
<path opacity="0.5" fill-rule="evenodd" clip-rule="evenodd" d="M49.5407 30.3395L40.1955 21.3208L34.3254 15.5338C34.3254 15.5338 33.8576 14.9988 33.1566 14.9988C32.4556 14.9988 31.7968 15.8184 31.7968 15.8184L33.7051 16.924L40.3239 23.1178L49.5407 32.2636L50.1122 33.0064C50.1122 33.0064 50.4999 32.6552 50.4999 32.062C50.4999 31.4688 50.1845 31.0172 50.1845 31.0172L49.5407 30.3395Z" fill="#260E18"/>
</g>
</g>
<defs>
<linearGradient id="paint0_linear_50_6409" x1="32" y1="63.9776" x2="32" y2="0" gradientUnits="userSpaceOnUse">
<stop stop-color="#B01C57"/>
<stop offset="0.38" stop-color="#F2507C"/>
<stop offset="1" stop-color="#FF99BD"/>
</linearGradient>
<linearGradient id="paint1_linear_50_6409" x1="32" y1="62.39" x2="32" y2="0.939226" gradientUnits="userSpaceOnUse">
<stop offset="0.02" stop-color="#63004B"/>
<stop offset="1" stop-color="#BF5495"/>
</linearGradient>
<linearGradient id="paint2_linear_50_6409" x1="32" y1="36.2041" x2="32" y2="1.40882" gradientUnits="userSpaceOnUse">
<stop offset="0.02" stop-color="#BD2F75"/>
<stop offset="0.98" stop-color="#FD6FC5"/>
</linearGradient>
<radialGradient id="paint3_radial_50_6409" cx="0" cy="0" r="1" gradientUnits="userSpaceOnUse" gradientTransform="translate(14.6918 -2.03496) scale(45.4843 45.4843)">
<stop stop-color="#FFE1ED"/>
<stop offset="0.01" stop-color="#FFD9F0"/>
<stop offset="0.98" stop-color="#080800"/>
</radialGradient>
<linearGradient id="paint4_linear_50_6409" x1="31.518" y1="49" x2="31.518" y2="15" gradientUnits="userSpaceOnUse">
<stop stop-color="#E02B82"/>
<stop offset="1" stop-color="#A63079"/>
</linearGradient>
<clipPath id="clip0_50_6409">
<rect width="64" height="64" fill="white"/>
</clipPath>
<clipPath id="clip1_50_6409">
<rect width="38" height="34" fill="white" transform="matrix(-1 0 0 1 50.5 15)"/>
</clipPath>
</defs>
</svg>
